<?xml version="1.0" encoding="UTF-8"?>
<svg id="Layer_2" xmlns="http://www.w3.org/2000/svg" viewBox="0 0 320.82 84.19">
  <defs>
    <style>
      .cls-1, .cls-2 {
        fill: #27b0e5;
      }

      .cls-3 {
        fill: #1b4176;
      }

      .cls-2 {
        isolation: isolate;
        opacity: .5;
      }

      .cls-4 {
        fill: #20a7df;
        fill-rule: evenodd;
      }

      .cls-5 {
        fill: #fff;
      }
    </style>
  </defs>
  <g id="Layer_2-2" data-name="Layer_2">
    <g id="Layer_1-2">
      <g>
        <g>
          <path class="cls-4" d="M20.32,73.12c-5.11,0-9.25-4.14-9.25-9.25V21.6L1.07,11.6c-.69,2.08-1.07,4.29-1.07,6.6v45.13c0,11.52,9.34,20.86,20.86,20.86h45.13c2.3,0,4.52-.37,6.6-1.07l-10-10H20.32Z"/>
          <path class="cls-3" d="M79.95,11.17l-9.17,6.28c-.03-.08-.06-.17-.09-.25-.05-.12-.09-.25-.14-.37-.05-.11-.09-.22-.14-.33-.07-.14-.14-.28-.21-.42-.05-.1-.11-.2-.17-.3-.05-.09-.1-.17-.15-.26-.03-.05-.06-.1-.09-.14,0,0,0,0,0-.02,0,0,0-.02-.02-.03-.05-.08-.1-.16-.16-.23h0c-.06-.1-.12-.18-.19-.27q-.05-.06,0,0s-.07-.09-.1-.13c-.06-.07-.12-.15-.18-.22-1.71-2.08-4.31-3.4-7.21-3.4H15.8c-.16,0-.31,0-.46.01L6.64,2.39C9.54.86,12.84,0,16.35,0h45.13c4.23,0,8.16,1.26,11.45,3.42,1.44.95,2.76,2.07,3.92,3.33.11.12.23.25.34.38.06.06.11.12.16.19.08.09.15.18.23.27.09.11.18.22.27.34.09.11.17.21.25.32.07.09.14.18.21.28.03.03.05.07.08.11.06.09.13.18.19.27.08.11.16.23.24.35.07.11.15.22.22.33.01.01.02.03.03.05.09.14.17.28.26.41.09.14.17.28.26.43s.17.29.24.44c.05.08.09.17.13.25h0Z"/>
          <path class="cls-3" d="M82.49,27.09v39c0,3.5-.86,6.8-2.39,9.7l-8.7-8.7c0-.15.01-.31.01-.46v-26.05l11.07-13.49Z"/>
          <path class="cls-4" d="M72.79,83.12c-2.08.69-4.29,1.07-6.6,1.07H21.06c-5.91,0-11.25-2.46-15.05-6.41l7.67-7.67c1.69,1.85,4.12,3.01,6.83,3.01h42.27l10,10h0Z"/>
        </g>
        <path class="cls-5" d="M71.11,18.7c.01.09.03.17.04.27-.01-.09-.03-.17-.05-.27,0-.05-.02-.09-.03-.14,0,.05.02.09.03.14h0Z"/>
        <g>
          <path class="cls-4" d="M96.61,2.87c0,4.21-39.83,48.97-48.62,58.81-.47.53-1.13.77-1.78.73-.58-.03-1.16-.3-1.57-.79l-23.94-26.03c-.5-.54,0-1.4.71-1.24l24.79,5.3L96.54,2.64c.05.05.07.13.07.23h0Z"/>
          <path class="cls-3" d="M96.61,2.87c0,4.21-39.83,48.97-48.62,58.81-.47.53-1.13.77-1.78.73-.58-.03-1.16-.3-1.57-.79l-23.94-26.03c-.5-.54,0-1.4.71-1.24l24.79,5.3L96.54,2.64c.05.05.07.13.07.23h0Z"/>
        </g>
      </g>
      <g>
        <g>
          <path class="cls-1" d="M247.81,78.2c-.84.41-1.72.72-2.62.92s-1.84.31-2.81.31c-2.18,0-3.91-.61-5.19-1.83-1.28-1.22-1.91-2.88-1.91-4.96s.65-3.77,1.95-4.98c1.3-1.21,3.08-1.82,5.34-1.82.87,0,1.71.08,2.5.25.8.16,1.55.41,2.26.73v2.71c-.73-.42-1.46-.73-2.18-.93-.73-.21-1.45-.31-2.17-.31-1.35,0-2.39.37-3.11,1.13-.73.75-1.09,1.83-1.09,3.23s.35,2.46,1.05,3.21c.7.75,1.7,1.13,3,1.13.35,0,.68-.02.98-.07.3-.05.57-.11.81-.21v-2.55h-2.06v-2.27h5.27v6.3h-.02Z"/>
          <path class="cls-1" d="M256.77,65.84c2.11,0,3.76.6,4.95,1.81s1.79,2.87,1.79,5-.6,3.78-1.79,4.98c-1.19,1.21-2.85,1.81-4.95,1.81s-3.75-.6-4.95-1.81c-1.2-1.21-1.8-2.87-1.8-4.98s.6-3.79,1.8-5c1.19-1.21,2.85-1.81,4.95-1.81ZM256.77,68.29c-1.03,0-1.83.38-2.4,1.14s-.85,1.83-.85,3.21.28,2.44.85,3.21,1.37,1.14,2.4,1.14,1.84-.38,2.41-1.14.85-1.83.85-3.21-.28-2.45-.85-3.21-1.37-1.14-2.41-1.14Z"/>
          <path class="cls-1" d="M274.37,66.07l-3.21,8.97-.26.71-.1-.26-3.38-9.42h-3.4l4.55,12.27.31.84h4.03l4.49-12.14.36-.96h-3.4,0Z"/>
          <path class="cls-1" d="M289.88,72.28l6.31-6.2h-3.92l-4.88,4.79v-4.79h-3.38v13.11h3.38v-5.16l5.21,5.16h4.24l-6.96-6.9Z"/>
          <path class="cls-1" d="M306.32,66.07v5h-4.99v-5h-3.38v13.11h3.38v-5.56h4.99v5.56h3.37v-13.11h-3.37Z"/>
          <circle class="cls-1" cx="279.09" cy="77.66" r="1.78"/>
        </g>
        <path class="cls-3" d="M112.02,11.48h9.83l10.06,28.01,10.04-28.01h9.84l-14.06,37.95h-11.67l-14.06-37.95h0Z"/>
        <path class="cls-3" d="M156.83,11.48h26.41v7.4h-16.62v7.07h15.63v7.4h-15.63v8.69h17.18v7.4h-26.97V11.48h0Z"/>
        <path class="cls-3" d="M202.17,35.07v14.36h-9.78V11.48h14.94c5,0,8.66.84,10.99,2.52s3.49,4.33,3.49,7.96c0,2.51-.61,4.56-1.82,6.18-1.21,1.61-3.04,2.8-5.48,3.56,1.34.3,2.54,1,3.6,2.07s2.13,2.71,3.21,4.89l5.31,10.78h-10.42l-4.63-9.43c-.93-1.9-1.87-3.19-2.83-3.89-.96-.7-2.23-1.04-3.82-1.04h-2.77ZM206.29,28.31c2.05,0,3.52-.38,4.41-1.15.89-.76,1.33-2.01,1.33-3.76s-.44-2.97-1.33-3.71-2.36-1.12-4.41-1.12h-4.12v9.74h4.12Z"/>
        <path class="cls-3" d="M232.29,36.08l9.78-9.24v22.59h-9.78v-13.35h0Z"/>
        <path class="cls-3" d="M251.83,11.48h26.41v7.4h-16.62v7.07h15.63v7.4h-15.63v16.09h-9.78V11.48Z"/>
        <path class="cls-3" d="M310.09,11.48l-8.65,13.53-8.64-13.53h-10.7l14.46,21.96v15.99h9.78v-15.99l14.46-21.96h-10.73Z"/>
        <path class="cls-2" d="M279.09,79.44c-.98,0-1.78-.8-1.78-1.78s.79-1.78,1.78-1.78,1.78.79,1.78,1.78-.8,1.78-1.78,1.78ZM292.61,79.18l-5.21-5.16v5.16h-3.38v-13.11h3.38v4.79l4.88-4.79h3.92l-6.31,6.2,6.96,6.9h-4.24ZM309.7,79.18h-3.37v-5.56h-4.99v5.56h-3.38v-13.11h3.38v5h4.99v-5h3.37v13.11Z"/>
        <path class="cls-5" d="M243.82,14.98s0,.04,0,.05c0-.02,0-.04,0-.05h0Z"/>
        <path class="cls-5" d="M245.76,13.82s.02.04.02.05c0-.02-.02-.04-.02-.05h0Z"/>
        <g>
          <path class="cls-4" d="M250.1,11.55c0,1.3-12.27,15.09-14.98,18.12-.14.16-.35.24-.55.22-.18,0-.36-.09-.48-.24l-7.37-8.02c-.15-.16,0-.43.22-.38l7.64,1.63,15.51-11.4s.02.04.02.07h0Z"/>
          <path class="cls-3" d="M250.1,11.55c0,1.3-12.27,15.09-14.98,18.12-.14.16-.35.24-.55.22-.18,0-.36-.09-.48-.24l-7.37-8.02c-.15-.16,0-.43.22-.38l7.64,1.63,15.51-11.4s.02.04.02.07h0Z"/>
        </g>
        <path class="cls-4" d="M234.46,22.87v7.02c-.15-.03-.28-.11-.37-.23l-7.38-8.02c-.15-.16,0-.43.22-.39l7.53,1.61h0Z"/>
      </g>
    </g>
  </g>
</svg>